<svg width="50" height="51" viewBox="0 0 50 51" fill="none" xmlns="http://www.w3.org/2000/svg">
<path d="M25 50.7141C38.8086 50.7141 50 39.5226 50 25.7141C50 11.9055 38.8086 0.71405 25 0.71405C11.1914 0.71405 0 11.9055 0 25.7141C0 39.5226 11.1914 50.7141 25 50.7141ZM36.0352 21.1242L23.5352 33.6242C22.6172 34.5422 21.1328 34.5422 20.2246 33.6242L13.9746 27.3742C13.0566 26.4562 13.0566 24.9719 13.9746 24.0637C14.8926 23.1555 16.377 23.1457 17.2852 24.0637L21.875 28.6535L32.7148 17.8039C33.6328 16.8859 35.1172 16.8859 36.0254 17.8039C36.9336 18.7219 36.9434 20.2062 36.0254 21.1144L36.0352 21.1242Z" fill="#B9A3A3"/>
</svg>
