<svg width="50" height="67" viewBox="0 0 50 67" fill="none" xmlns="http://www.w3.org/2000/svg">
<path d="M32.4334 7.01284C32.4334 10.4062 29.0805 13.1593 24.9479 13.1593C20.8153 13.1593 17.4624 10.4062 17.4624 7.01284C17.4624 3.61947 20.8153 0.866364 24.9479 0.866364C29.0805 0.866364 32.4334 3.61947 32.4334 7.01284ZM23.7003 45.9405V62.3311C23.7003 64.5976 21.4702 66.4288 18.71 66.4288C15.9497 66.4288 13.7197 64.5976 13.7197 62.3311V33.7628L9.25956 39.8581C7.84044 41.7917 4.76828 42.4191 2.41347 41.2538C0.0586638 40.0886 -0.705479 37.5659 0.713643 35.6324L9.80538 23.2114C12.5189 19.5107 17.3844 17.2442 22.6399 17.2442H27.2715C32.5269 17.2442 37.3925 19.5107 40.106 23.2114L49.1977 35.6324C50.6168 37.5659 49.8527 40.0886 47.4979 41.2538C45.1431 42.4191 42.0709 41.7917 40.6518 39.8581L36.1761 33.7628V62.3311C36.1761 64.5976 33.946 66.4288 31.1858 66.4288C28.4255 66.4288 26.1955 64.5976 26.1955 62.3311V45.9405H23.7003Z" fill="#B9A3A3"/>
</svg>
