<svg width="50" height="51" viewBox="0 0 50 51" fill="none" xmlns="http://www.w3.org/2000/svg">
<path d="M32.8125 35.0812C42.3047 35.0812 50 27.3859 50 17.8937C50 8.40155 42.3047 0.706238 32.8125 0.706238C23.3203 0.706238 15.625 8.40155 15.625 17.8937C15.625 19.7199 15.9082 21.4875 16.4355 23.1379L0.683594 38.8898C0.244141 39.3293 0 39.925 0 40.55V48.3625C0 49.6613 1.04492 50.7062 2.34375 50.7062H10.1562C11.4551 50.7062 12.5 49.6613 12.5 48.3625V44.4562H16.4062C17.7051 44.4562 18.75 43.4113 18.75 42.1125V38.2062H22.6562C23.2812 38.2062 23.877 37.9621 24.3164 37.5226L27.5684 34.2707C29.2187 34.798 30.9863 35.0812 32.8125 35.0812ZM36.7188 17.8937C34.5605 17.8937 32.8125 16.1457 32.8125 13.9875C32.8125 11.8293 34.5605 10.0812 36.7188 10.0812C38.877 10.0812 40.625 11.8293 40.625 13.9875C40.625 16.1457 38.877 17.8937 36.7188 17.8937Z" fill="#B9A3A3"/>
</svg>
